<svg width="84" height="12" viewBox="0 0 84 12" fill="none" xmlns="http://www.w3.org/2000/svg">
<g clip-path="url(#clip0)">
<path d="M58.9401 11.9493H78.5714C79.2843 11.9493 79.9902 11.7949 80.6488 11.4949C81.3075 11.1949 81.9059 10.7552 82.41 10.2009C82.9141 9.64654 83.3139 8.98846 83.5868 8.2642C83.8596 7.53993 84 6.76367 84 5.97973C84.0012 5.19494 83.8617 4.41759 83.5894 3.69215C83.3171 2.96672 82.9175 2.30744 82.4133 1.75204C81.909 1.19663 81.3102 0.75601 80.651 0.455376C79.9917 0.154742 79.2851 -1.13108e-06 78.5714 0L58.9401 0C58.2264 -1.13108e-06 57.5198 0.154742 56.8605 0.455376C56.2013 0.75601 55.6025 1.19663 55.0982 1.75204C54.594 2.30744 54.1944 2.96672 53.9221 3.69215C53.6498 4.41759 53.5103 5.19494 53.5115 5.97973C53.5115 7.56296 54.0835 9.08135 55.1015 10.2009C56.1196 11.3204 57.5003 11.9493 58.9401 11.9493ZM3.10292 11.9662H5.49923V2.33784H8.60215V0H0V2.33108H3.10292V11.9662ZM11.7358 11.9662H14.1321V2.78716H14.1628L16.9124 11.9595H18.7558L21.5975 2.78716H21.6283V11.9595H24.0246V0H20.4147L17.8955 7.80405H17.8648L15.361 0H11.7358V11.9662ZM27.3856 0.0405405H30.98C31.8169 0.0419549 32.6505 0.155402 33.4624 0.378378C34.2017 0.571266 34.8985 0.925073 35.5115 1.41892C36.1044 1.90915 36.5817 2.54867 36.9032 3.28378C37.2667 4.15714 37.4423 5.11088 37.4163 6.07095C37.4329 6.95541 37.2626 7.83204 36.9186 8.63176C36.5983 9.3514 36.1391 9.98552 35.573 10.4899C34.9935 11.0008 34.3317 11.387 33.6221 11.6284C32.8721 11.8903 32.0895 12.0213 31.3026 12.0169H27.3856V0.0405405ZM29.7819 9.56757H31.0107C31.5276 9.57144 32.0431 9.50909 32.5468 9.38176C32.9963 9.28144 33.4214 9.07765 33.7942 8.78378C34.1499 8.48771 34.4329 8.09872 34.6175 7.65203C34.8332 7.11168 34.9381 6.52574 34.9247 5.93581C34.9339 5.40722 34.8286 4.88381 34.6175 4.40878C34.4259 3.98782 34.1496 3.62041 33.8095 3.33446C33.4561 3.04583 33.0572 2.83164 32.6329 2.7027C32.1649 2.55881 31.681 2.48717 31.1951 2.48986H29.7819V9.56757ZM40.8879 0.0405405H44.9432C45.4191 0.0407957 45.8944 0.0780507 46.3656 0.152027C46.8125 0.215696 47.246 0.364304 47.6467 0.591216C48.021 0.804775 48.3385 1.12138 48.5683 1.51014C48.8233 1.98453 48.9461 2.53071 48.9217 3.08108C48.9427 3.69395 48.7604 4.29433 48.4086 4.77027C48.0496 5.22755 47.5763 5.55883 47.0476 5.72297V5.74324C47.3878 5.79666 47.7178 5.91077 48.0246 6.08108C48.3078 6.23751 48.5629 6.44929 48.7773 6.70608C48.9896 6.96323 49.1535 7.26406 49.2596 7.59122C49.374 7.93764 49.4312 8.30375 49.4286 8.6723C49.447 9.2274 49.319 9.77651 49.0599 10.2534C48.8189 10.6685 48.4927 11.0156 48.1075 11.2669C47.7026 11.5342 47.2588 11.7228 46.7957 11.8243C46.3181 11.9369 45.831 11.9936 45.3425 11.9932H40.8879V0.0405405ZM43.2842 4.82095H45.02C45.204 4.82205 45.3876 4.79937 45.5668 4.75338C45.7382 4.71245 45.9016 4.63807 46.0491 4.53378C46.1931 4.43169 46.3123 4.29254 46.3963 4.12838C46.4863 3.94131 46.5308 3.73182 46.5253 3.52027C46.5352 3.30526 46.4883 3.09171 46.3902 2.90541C46.2948 2.74577 46.165 2.6146 46.0123 2.52365C45.8411 2.42913 45.6577 2.36418 45.4685 2.33108C45.2812 2.29125 45.0909 2.2709 44.9001 2.27027H43.2719L43.2842 4.82095ZM43.2842 9.77027H45.4347C45.6238 9.77083 45.8124 9.74816 45.9969 9.7027C46.1803 9.66144 46.3546 9.5811 46.51 9.46622C46.665 9.35373 46.7943 9.20343 46.8879 9.02703C46.9888 8.82562 47.0386 8.5981 47.0322 8.36824C47.0404 8.12576 46.9733 7.88744 46.8418 7.69257C46.7128 7.51722 46.5459 7.38017 46.3564 7.29392C46.1595 7.20373 45.953 7.1413 45.7419 7.10811C45.5333 7.07553 45.3229 7.05859 45.1121 7.05743H43.2995L43.2842 9.77027Z" fill="url(#paint0_linear)"/>
</g>
<defs>
<linearGradient id="paint0_linear" x1="0" y1="6" x2="84" y2="6" gradientUnits="userSpaceOnUse">
<stop stop-color="#90CEA1"/>
<stop offset="0.56" stop-color="#3CBEC9"/>
<stop offset="1" stop-color="#00B3E5"/>
</linearGradient>
<clipPath id="clip0">
<rect width="84" height="12" fill="white"/>
</clipPath>
</defs>
</svg>
